<?xml version="1.0" encoding="UTF-8" ?>
<!DOCTYPE svg PUBLIC "-//W3C//DTD SVG 1.1//EN" "http://www.w3.org/Graphics/SVG/1.1/DTD/svg11.dtd">
<svg width="190pt" height="163pt" viewBox="0 0 190 163" version="1.1" xmlns="http://www.w3.org/2000/svg">
<path fill="rgba(0,0,0,0)" d=" M 0.00 0.00 L 190.00 0.00 L 190.00 163.00 L 0.00 163.00 L 0.00 0.00 Z" />
<path fill="#ffffff" d=" M 66.77 12.86 C 61.84 36.37 61.48 62.39 73.40 83.96 C 83.45 73.69 98.05 69.66 111.94 68.18 C 123.84 66.93 135.82 67.85 147.64 69.35 C 133.54 71.87 119.55 75.94 106.92 82.81 C 104.94 83.99 102.49 85.03 101.73 87.42 C 98.48 95.63 96.82 104.69 98.52 113.46 C 110.86 107.80 124.70 112.42 136.35 117.58 C 126.72 116.70 116.53 116.41 107.54 120.53 C 104.09 122.02 101.69 125.07 99.94 128.29 C 107.59 128.26 115.22 127.61 122.83 126.86 C 135.01 125.22 147.60 123.46 158.55 117.50 C 161.73 115.72 165.62 112.63 164.50 108.48 C 162.63 104.13 157.98 102.00 153.89 100.21 C 137.58 93.71 119.82 92.93 102.55 91.26 C 123.50 92.72 145.02 93.43 164.85 101.09 C 169.12 102.84 173.70 105.03 176.06 109.22 C 177.56 112.18 175.51 115.42 173.18 117.23 C 167.72 121.51 160.91 123.49 154.33 125.31 C 136.22 129.97 117.44 131.05 98.83 131.48 C 97.78 137.12 99.40 142.80 102.12 147.74 C 92.54 144.53 83.31 139.95 75.71 133.22 C 74.28 132.17 73.06 130.46 71.14 130.40 C 57.85 129.26 44.51 127.39 31.82 123.14 C 27.83 121.70 23.81 120.06 20.44 117.42 C 18.50 115.86 16.52 113.60 16.97 110.91 C 17.46 107.37 20.70 105.19 23.53 103.50 C 30.68 99.57 38.68 97.53 46.62 95.95 C 39.09 98.03 31.05 99.78 24.86 104.84 C 22.42 106.70 21.05 110.34 22.92 113.07 C 25.54 116.63 29.77 118.49 33.72 120.19 C 45.23 124.60 57.56 126.20 69.75 127.49 C 55.67 112.43 49.96 91.27 50.10 71.03 C 50.65 50.57 58.82 31.39 66.77 12.86 Z" />
<path fill="#ffffff" d=" M 81.46 31.62 C 90.71 29.28 100.85 36.43 101.61 45.96 C 102.72 54.10 96.92 62.42 88.87 64.11 C 80.40 66.27 70.92 60.58 69.02 52.02 C 66.47 43.25 72.57 33.45 81.46 31.62 Z" />
<path fill="rgba(0,0,0,0)" d=" M 87.93 100.78 C 90.01 96.10 93.99 92.71 97.40 89.03 C 92.43 95.80 88.39 103.51 87.40 111.96 C 86.31 117.59 87.29 123.26 87.82 128.88 C 85.86 126.01 85.39 122.46 85.11 119.07 C 84.84 112.89 85.09 106.42 87.93 100.78 Z" />
<path fill="#ffffff" d=" M 104.38 94.55 C 109.29 91.63 116.17 96.39 115.04 102.02 C 114.57 107.61 106.70 110.49 102.87 106.27 C 99.07 103.12 100.17 96.77 104.38 94.55 Z" />
</svg>
